# Blender 4.0.2
# www.blender.org
mtllib book.mtl
o 큐브.001
v 1.965444 2.969996 -0.798202
v 1.965432 -2.970004 -0.798200
v 1.868880 2.969996 -1.186371
v 1.868869 -2.970004 -1.186369
v -2.110335 2.970004 0.215714
v -2.110347 -2.969996 0.215716
v -2.206898 2.970004 -0.172456
v -2.206910 -2.969996 -0.172454
vn 0.2414 -0.0000 0.9704
vn -0.9704 -0.0000 0.2414
vn -0.2414 -0.0000 -0.9704
vn -0.0000 1.0000 -0.0000
vn -0.0000 -1.0000 -0.0000
vn 0.9704 -0.0000 -0.2414
vt 0.000100 0.996923
vt 0.000100 -0.001499
vt 0.999900 -0.001499
vt 0.999900 0.996923
vt 0.999922 0.001642
vt 0.999924 0.997783
vt 0.000078 0.997783
vt 0.000076 0.001642
vt 0.000100 0.997437
vt 0.000100 0.000843
vt 0.999900 0.000843
vt 0.999900 0.997437
vt 0.125000 0.500000
vt 0.375000 0.500000
vt 0.375000 0.750000
vt 0.125000 0.750000
vt 0.625000 0.500000
vt 0.875000 0.500000
vt 0.875000 0.750000
vt 0.625000 0.750000
vt 0.000077 0.996841
vt 0.000077 -0.002505
vt 0.999923 -0.002504
vt 0.999923 0.996841
s 0
g 큐브.001_커버.001
usemtl 커버.001
f 5/1/1 6/2/1 2/3/1 1/4/1
f 3/13/4 7/14/4 5/15/4 1/16/4
f 8/17/5 4/18/5 2/19/5 6/20/5
g 큐브.001_책등.001
usemtl 책등.001
f 7/5/2 8/6/2 6/7/2 5/8/2
g 큐브.001_종이.001
usemtl 종이.001
f 1/21/6 2/22/6 4/23/6 3/24/6
g 큐브.001_뒷커버
usemtl 뒷커버
f 3/9/3 4/10/3 8/11/3 7/12/3
