# Blender 4.0.2
# www.blender.org
mtllib book2.mtl
o 큐브.002
v 2.100005 2.969996 -0.300119
v 2.099995 -2.970004 -0.300120
v 2.100005 2.969996 -0.700119
v 2.099995 -2.970004 -0.700120
v -2.099995 2.970004 -0.300119
v -2.100005 -2.969996 -0.300120
v -2.099995 2.970004 -0.700119
v -2.100005 -2.969996 -0.700120
vn -0.0000 -0.0000 1.0000
vn -1.0000 -0.0000 -0.0000
vn -0.0000 -0.0000 -1.0000
vn -0.0000 1.0000 -0.0000
vn -0.0000 -1.0000 -0.0000
vn 1.0000 -0.0000 -0.0000
vt 0.000100 0.996923
vt 0.000100 -0.001499
vt 0.999900 -0.001499
vt 0.999900 0.996923
vt 0.999923 0.001642
vt 0.999922 0.997783
vt 0.000077 0.997783
vt 0.000077 0.001642
vt 0.000100 0.997437
vt 0.000100 0.000843
vt 0.999900 0.000843
vt 0.999900 0.997437
vt 0.125000 0.500000
vt 0.375000 0.500000
vt 0.375000 0.750000
vt 0.125000 0.750000
vt 0.625000 0.500000
vt 0.875000 0.500000
vt 0.875000 0.750000
vt 0.625000 0.750000
vt 0.000077 0.996841
vt 0.000077 -0.002505
vt 0.999923 -0.002504
vt 0.999923 0.996841
s 0
g 큐브.002_책등
usemtl 책등
f 7/5/2 8/6/2 6/7/2 5/8/2
f 3/13/4 7/14/4 5/15/4 1/16/4
f 8/17/5 4/18/5 2/19/5 6/20/5
g 큐브.002_뒷커버
usemtl 뒷커버
f 3/9/3 4/10/3 8/11/3 7/12/3
g 큐브.002_커버
usemtl 커버
f 5/1/1 6/2/1 2/3/1 1/4/1
g 큐브.002_종이
usemtl 종이
f 1/21/6 2/22/6 4/23/6 3/24/6
