# Blender 4.0.2
# www.blender.org
mtllib book3.mtl
o 큐브.003
v 1.702457 2.969993 -1.265603
v 1.702440 -2.970007 -1.265595
v 1.511631 2.969993 -1.617151
v 1.511614 -2.970007 -1.617142
v -1.988792 2.970007 0.738063
v -1.988809 -2.969993 0.738072
v -2.179617 2.970007 0.386516
v -2.179634 -2.969993 0.386525
vn 0.4771 -0.0000 0.8789
vn -0.8789 -0.0000 0.4771
vn -0.4771 -0.0000 -0.8789
vn -0.0000 1.0000 -0.0000
vn -0.0000 -1.0000 -0.0000
vn 0.8789 -0.0000 -0.4771
vt 0.000100 0.996923
vt 0.000100 -0.001499
vt 0.999900 -0.001499
vt 0.999900 0.996923
vt 0.999923 0.001642
vt 0.999922 0.997783
vt 0.000077 0.997783
vt 0.000077 0.001642
vt 0.000100 0.997437
vt 0.000100 0.000843
vt 0.999900 0.000843
vt 0.999900 0.997437
vt 0.125000 0.500000
vt 0.375000 0.500000
vt 0.375000 0.750000
vt 0.125000 0.750000
vt 0.625000 0.500000
vt 0.875000 0.500000
vt 0.875000 0.750000
vt 0.625000 0.750000
vt 0.000077 0.996841
vt 0.000077 -0.002505
vt 0.999923 -0.002504
vt 0.999923 0.996841
s 0
g 큐브.003_책등.002
usemtl 책등.002
f 7/5/2 8/6/2 6/7/2 5/8/2
f 3/13/4 7/14/4 5/15/4 1/16/4
f 8/17/5 4/18/5 2/19/5 6/20/5
g 큐브.003_종이
usemtl 종이
f 1/21/6 2/22/6 4/23/6 3/24/6
g 큐브.003_커버.002
usemtl 커버.002
f 5/1/1 6/2/1 2/3/1 1/4/1
g 큐브.003_뒷커버
usemtl 뒷커버
f 3/9/3 4/10/3 8/11/3 7/12/3
